<?xml version="1.0" encoding="UTF-8"?>
<svg enable-background="new 0 0 365 257" version="1.1" viewBox="0 0 365 257" xml:space="preserve" xmlns="http://www.w3.org/2000/svg">
<style type="text/css">
	.st0{display:none;}
	.st1{display:inline;fill:#A0616A;}
	.st2{display:inline;fill:#CECCDF;}
	.st3{display:inline;fill:#661F5C;}
	.st4{display:inline;fill:#2F2F41;}
	.st5{display:inline;fill:#575B89;}
	.st6{fill:#403D56;}
	.st7{fill:#E97D13;}
	.st8{fill:#55AF38;}
	.st9{fill:#FFFFFF;}
	.st10{fill:#9BC556;}
	.st11{opacity:0.1;enable-background:new    ;}
	.st12{fill:#F9DCB3;}
	.st13{fill:#517BBD;}
	.st14{fill:#EA567A;}
	.st15{fill:url(#a);}
	.st16{fill:#2F2F41;}
	.st17{fill:#F6BCBD;}
	.st18{fill:#F9F9F9;}
</style>
<g class="st0">
	<path class="st1" d="m253.6 185c5.2-11.8 20.1 11.6 20.1 11.6l-3.2 6.4s-26.3-9.5-16.9-18"/>
	<path class="st2" d="m266.8 200.8 3.9-7.4 0.2-0.4s15.5 5.7 25.2 9.2c1.2 0.4 2.6 1 4 1.7 10.6 5 27.4 15.7 27.4 15.7l21.3 12.9s4.6 3.4 15.5 5.7c0.5 0.1 1 0.2 1.4 0.4 0 1.4 0 2.9-0.1 4.4-0.3 4.9-0.5 10-0.8 15.2l-36.8-14.8-28-16.6-8.8-5.2-6.7-4-0.6-0.4s-7.1-3.4-9.3-6.8c-2.1-3.3-9.5-6-9.5-6l1.7-3.6z"/>
	<path class="st3" d="m266.8 200.8 3.9-7.4 0.2-0.4s15.5 5.7 25.2 9.2c1.2 0.4 2.6 1 4 1.7 10.6 5 27.4 15.7 27.4 15.7l21.3 12.9s4.6 3.4 15.5 5.7c0.5 0.1 1 0.2 1.4 0.4 0 1.4 0 2.9-0.1 4.4-0.3 4.9-0.5 10-0.8 15.2l-36.8-14.8-28-16.6-8.8-5.2-6.7-4-0.6-0.4s-7.1-3.4-9.3-6.8c-2.1-3.3-9.5-6-9.5-6l1.7-3.6z"/>
	<polygon class="st1" points="309.2 473.9 307.6 491.2 320.2 491.2 320.2 474.6"/>
	<polygon class="st1" points="357.3 473.9 357.3 493.6 373.1 492.8 369.1 473.9"/>
	<path class="st4" d="m295 327.2c-7.1 3.9 0 78.1 0 78.1l12.6 74.1 15.8 1.6s0-20.5 0.8-36.3-3.1-30.8-3.1-30.8l9.5-61.5 18.9 57.6c-2.4 18.1 5.5 37.9 5.5 37.9l0.8 21.3 0.8 7.9h14.2s0-8.7 3.1-21.3-4.7-56-4.7-56-0.8-48.9-1.6-63.1-4.7-12.6-4.7-12.6-60.8-0.9-67.9 3.1z"/>
	<path class="st1" d="m340 167.8c0 10.9-8.8 19.7-19.7 19.7s-13.2-4.4-18.7-18.8c-3.9-10.2 7.8-20.6 18.7-20.6 10.8 0 19.7 8.8 19.7 19.7z"/>
	<path class="st1" d="m312 181.6c2.4 4.7 0 22.9 0 22.9s36.3-0.8 31.5-3.9c-4.7-3.1-7.9-26-7.9-26l-23.6 7z"/>
	<path class="st1" d="m280.6 331.6s6.3 21-6.1 23.9c-12.9 3-1-23.2-1-23.2l7.1-0.7z"/>
	<path class="st4" d="m338.2 182c3.3-5.3 4.9-7.3 5.8-13.4s-0.6-12.9-5.2-17.1c-4.8-4.5-11.9-5.3-18.5-5.9-2.6-0.2-5.3-0.4-7.6 0.7-1.3 0.7-2.4 1.8-3.9 2.2-1.4 0.4-3.4-0.2-3.5-1.7-0.3 3.8-3.4 6.8-7.2 6.8 4.3 3.2 1 11.6 5.6 14.3 2.5 1.4 5.6 0.1 8.4 0.8 4.2 1.1 5.8 6.1 8.4 9.6 4.3 5.3 11.7 7 17.9 4l-0.2-0.3z"/>
	<path class="st3" d="m300 204c4.6-2.1 9.5-4.4 11.9-5.6l0.6-0.3c4.9-1.8 20.4-2.9 27.5-3.3 2.3-0.1 3.7-0.2 3.7-0.2 13.4 10.7 21.4 26.8 21.8 44 0 1.4 0 2.9-0.1 4.4-0.3 4.9-0.5 10-0.8 15.2-1 18.1-2.1 36.3-2.8 43-0.8 8 0.2 16.1 2.8 23.7 0.4 1 0.7 2.1 1.2 3.1l-71.8 2.4v-2.3c-0.1-4.4 2.9-6.5 1.7-16.5 2.2-9 5.6-10.1 3.4-15.7 0-3.4-2.8-10.6-1.1-15.7 1-3 0-7.3 0-7.3l-0.4-2.6-6.6-48.6-1.6-11.9-0.1-0.8c0.2-0.1 5.3-2.5 10.7-5z"/>
	<path class="st3" d="m298.9 264.1-9.5 50.5s-0.8 7.9-3.1 11c-2.4 3.1-2.4 11-2.4 11l-12.6-1.6v-26.8c0-10.2 5.5-35.5 5.5-35.5l4.7-24.4s1.6-5.5 0-16.6 7.9-22.1 7.9-22.1h11l-1.5 54.5z"/>
	<ellipse class="st5" cx="339.3" cy="505.5" rx="84.7" ry="10.4"/>
	<path class="st4" d="m306 477.8s-3.1 2.4-12.6 3.1c-9.5 0.8-4.7 14.2-4.7 14.2s24.5 12.6 26.8 14.2c2.4 1.6 9.5 0 15-4.7s-1.6-14.2-4.7-21.3-10.2 2.4-10.2 2.4l-9.6-7.9z"/>
	<path class="st4" d="m354.9 487.3s-2.4 11.8-3.9 18.9c-1.6 7.1 10.2 3.9 28.4 3.9s-0.8-15-0.8-15-2.4-10.2-5.5-12.6-3.1 5.5-3.1 5.5c-7.2-11-15.1-0.7-15.1-0.7z"/>
</g>

	<rect class="st6" x="12.4" y="50.7" width="261.4" height=".8"/>
	<rect class="st6" x="28.4" y="66.6" width="67.9" height=".8"/>
	<rect class="st6" x="28.4" y="71.9" width="67.9" height=".8"/>
	<rect class="st6" x="28.4" y="77.2" width="67.9" height=".8"/>
	<rect class="st7" x="29.8" y="47.4" width="15.3" height="12.4"/>
	<path class="st6" d="m42.8 57.9h-15.9v-13h15.9v13zm-15.2-0.6h14.6v-11.8h-14.6v11.8z"/>
	<path class="st8" d="m11.7 51.5c0-1.7 1.4-3 3-3 1.7 0 3 1.4 3 3s-1.4 3-3 3c-1.7 0.1-3-1.3-3-3"/>
	<rect class="st6" x="287.1" y="66.6" width="67.9" height=".8"/>
	<rect class="st6" x="287.1" y="71.9" width="67.9" height=".8"/>
	<rect class="st6" x="287.1" y="77.2" width="67.9" height=".8"/>
	<rect class="st7" x="288.5" y="47.4" width="15.3" height="12.4"/>
	<path class="st6" d="m301.6 57.9h-15.9v-13h15.9v13zm-15.3-0.6h14.6v-11.8h-14.6v11.8z"/>
	<circle class="st8" cx="273.4" cy="51.5" r="3"/>
	<rect class="st6" x="158" y="34.9" width="67.9" height=".8"/>
	<rect class="st6" x="158" y="29.5" width="67.9" height=".8"/>
	<rect class="st6" x="158" y="24.2" width="67.9" height=".8"/>
	<rect class="st7" x="159.4" y="42.4" width="15.3" height="12.4"/>
	<path class="st6" d="m172.4 57.3h-15.9v-13h15.9v13zm-15.3-0.6h14.6v-11.8h-14.6v11.8z"/>
	<circle class="st8" cx="144.2" cy="50.7" r="3"/>
	<circle class="st9" cx="62.5" cy="50.7" r="6.8"/>
	<path class="st8" d="m62.4 43c-4.2 0-7.5 3.4-7.5 7.5s3.4 7.5 7.5 7.5 7.5-3.4 7.5-7.5c0.1-4.1-3.3-7.5-7.5-7.5zm-1.3 11-3.2-3.2 0.9-0.9 2.3 2.3 4.9-4.9 0.9 0.9-5.8 5.8z"/>
	<path class="st6" d="m313.5 170.9c-17.7 13.3-22.7 36.6-22.7 36.6s23.8 1.8 41.5-11.5 22.7-36.6 22.7-36.6-23.8-1.8-41.5 11.5z"/>
	<path class="st10" d="m290.8 207.2s-0.3-0.1-0.7-0.4c-0.4-0.2-0.9-0.6-1.5-1-5.6-3.7-20-14.5-25.9-31.1-7.4-20.9 1.3-43 1.3-43s19.1 10.7 27.2 30c0.4 0.8 0.7 1.7 1 2.5 6.4 18.2 0.7 37.3-1 42-0.3 0.6-0.4 1-0.4 1z"/>
	<path class="st6" d="m290.9 207.8-0.3-0.2c-0.2-0.1-19.4-14.3-24.4-35.7-4.9-21.4 6.2-42.6 6.3-42.8l0.2-0.3 0.3 0.2c0.2 0.1 19.4 14.3 24.4 35.7 4.9 21.4-6.2 42.6-6.3 42.8l-0.2 0.3zm-18.1-78.1c-1.3 2.7-10.6 22.3-6.1 42.1 4.6 19.8 21.5 33.4 23.9 35.2 1.3-2.7 10.6-22.3 6.1-42.1s-21.5-33.4-23.9-35.2z"/>
	<path class="st11" d="m291.2 206.1c-0.4 0.3-0.8 0.5-1.1 0.6-0.7 0.4-1.1 0.6-1.1 0.6s-0.2-0.5-0.5-1.5c-1.5-5.4-5.8-24.2 1.4-41.5l1.2-2.7c0.4 0.8 0.7 1.7 1 2.5 6.5 18.2 0.7 37.3-0.9 42z"/>
	<path class="st10" d="m320.9 177.1c-8.5 20.4-29.9 31-29.9 31s-7.6-22.6 0.9-43 29.9-31 29.9-31 7.6 22.5-0.9 43z"/>
	
		<rect class="st6" transform="matrix(.3868 -.9221 .9221 .3868 30.046 387.58)" x="267.1" y="170.9" width="78.7" height=".6"/>
	<path class="st6" d="m7 214.1c0-6.1 77.2-11 172.4-11 41 0 78.6 0.9 108.2 2.4 1.1 0.1 2.2 0.1 3.2 0.2 37.3 2 60.9 5 60.9 8.4 0 2.7-15.8 5.2-41.9 7.2-4.7 0.3-9.8 0.7-15.2 1-4.7 0.3-9.5 0.5-14.6 0.8-4.9 0.2-10.1 0.4-15.4 0.6-16.8 0.6-35.4 1.1-55.2 1.3-4.8 0.1-9.6 0.1-14.6 0.1h-15.6c-95 0-172.2-5-172.2-11"/>
	<path class="st7" d="m7 214.1c0-6.1 77.2-11 172.4-11 41 0 78.6 0.9 108.2 2.4 1.1 0.1 2.2 0.1 3.2 0.2 37.3 2 60.9 5 60.9 8.4 0 2.7-15.8 5.2-41.9 7.2-4.7 0.3-9.8 0.7-15.2 1-4.7 0.3-9.5 0.5-14.6 0.8-4.9 0.2-10.1 0.4-15.4 0.6-16.8 0.6-35.4 1.1-55.2 1.3-4.8 0.1-9.6 0.1-14.6 0.1h-15.6c-95 0-172.2-5-172.2-11"/>
	<path class="st12" d="m338.5 212.1c0 2.3-14.7 4.4-39 6-4.4 0.3-9.2 0.6-14.2 0.8-4.3 0.2-8.9 0.4-13.7 0.6-4.6 0.2-9.4 0.4-14.4 0.5-15.7 0.5-33 0.9-51.4 1.1-4.5 0-9 0.1-13.6 0.1h-14.5c-88.8 0-160.7-4.1-160.7-9.2s72-9.2 160.7-9.2c19.6 0 38.4 0.2 55.8 0.6 16.4 0.3 31.6 0.8 45 1.5 1 0 2 0.1 3 0.1 6.1 0.3 11.9 0.6 17.2 1h0.2c24.7 1.7 39.6 3.8 39.6 6.1z"/>
	<path class="st11" d="m298.9 206.1c-2.2 14.1-15.9 9.4-32.5 9.4-17.5 0-31.9 5.3-32.7-12 16.4 0.3 31.6 0.8 45 1.5 1 0 2 0.1 3 0.1 6.2 0.3 11.9 0.7 17.2 1z"/>
	<path class="st13" d="m99.9 201.8c0 5.1-3 6.9-6.8 6.9h-0.3-0.5c-3.4-0.2-6-2.1-6-6.9 0-4.9 6.3-11.1 6.7-11.6s6.9 6.5 6.9 11.6z"/>
	<path class="st6" d="m92.9 207.9 2.5-3.5-2.5 3.8v0.4h-0.5l0.3-5.1v-0.5l-2.5-3.8 2.5 3.5v0.1l0.2-3.9-2.1-4 2.2 3.3 0.2-8v6.3l2.1-2.5-2.1 3-0.1 3.5 2-3.3-2 3.8v1.9l2.9-4.6-2.9 5.3-0.2 4.3z"/>
	<path class="st6" d="m233.6 198.2c0-19.4 14.7-35.1 32.8-35.1s32.8 15.7 32.8 35.1-14.7 13.8-32.8 13.8-32.8 5.6-32.8-13.8z"/>
	<rect class="st6" x="51.3" y="175.1" width=".6" height="39.6"/>
	<circle class="st14" cx="51.6" cy="175.1" r="5.6"/>
	<path class="st10" d="m51.6 199.5s-0.8-17.2-17.2-15.2"/>
	
		<linearGradient id="a" x1="199.37" x2="199.37" y1="-17.097" y2="-2.0001" gradientTransform="matrix(1 0 0 -1 -5.7341 166.04)" gradientUnits="userSpaceOnUse">
		<stop stop-color="#808080" stop-opacity=".25" offset="0"/>
		<stop stop-color="#808080" stop-opacity=".12" offset=".5351"/>
		<stop stop-color="#808080" stop-opacity=".1" offset="1"/>
	</linearGradient>
	<path class="st15" d="m214.6 181.6c0.1 0.5 0.3 1 0.5 1.5-0.8-0.8-1.5-1.6-2.3-2.3 0.3 0.1 0.6 0.2 0.9 0.3 0.3 0.2 0.6 0.3 0.9 0.5zm-3.8-2.6c-4.6-4-9.9-7.1-14.7-11 2.6 1.3 5.1 2.7 7.6 4.2 3 1.7 5.9 3.3 9 4.8-0.5 0.8-1.1 1.5-1.9 2zm2-10.1c0.1-0.1 0.1-0.2 0.2-0.2v1.6c-0.4-0.1-0.8-0.3-1.2-0.4 0.3-0.3 0.7-0.6 1-1zm-40.6 10.9c1.9-2.1 3.5-4.5 4.9-7 1.8 3.2 4.8 5.5 7.3 8.2-4-0.6-8.1-1-12.2-1.2z"/>
	<path class="st13" d="m41.3 209.4c0 5.1-3 6.9-6.8 6.9h-0.3-0.5c-3.4-0.2-6-2.1-6-6.9 0-4.9 6.3-11.1 6.7-11.6s6.9 6.5 6.9 11.6z"/>
	<path class="st6" d="m34.3 215.5 2.5-3.5-2.5 3.8v0.4h-0.5l0.3-5.1v-0.5l-2.5-3.8 2.5 3.5v0.1l0.2-3.9-2.1-4 2.2 3.3 0.2-8v6.3l2.1-2.5-2.1 3-0.1 3.5 2-3.3-2 3.8v1.9l2.9-4.6-2.9 5.3-0.2 4.3z"/>
	<circle class="st13" cx="44.8" cy="165.9" r="2.9"/>
	<path class="st16" d="m233 124.9s10.6-2.4 11.8 7-5.6 11.1-5.6 11.1l-4.3 1.2-16.7-4.4 2.3-6.7 12.5-8.2z"/>
	<circle class="st16" cx="229.2" cy="111.1" r="14.4"/>
	<polygon class="st16" points="178.8 140.9 181.7 141.5 191.6 156.1 187.2 156.7"/>
	<path class="st17" d="m108.2 200.4c0.8 2.6 1.8 5.1 2.9 7.6 3.3-0.7 6.5-1.6 9.7-2.8 0.1 0-1.8-2.5-2-2.7-0.8-0.8-1.7-1.7-2.7-2.1s-2.2-0.1-3.3 0h-4.6z"/>
	<path class="st16" d="m116.1 204.3c-1.6-0.5-2.6-2.2-3.3-3.8s-1.2-3.3-2.5-4.5c-0.5 0-0.9 0.4-1.1 0.8s-0.4 0.9-0.7 1.3c-0.5 0.8-1.5 1.1-2.1 1.8-0.7 0.7-1.1 1.6-1.8 2.3-0.9 0.8-2.2 1-3.4 1.3-1.8 0.4-3.6 1.1-5.3 2-0.6 0.4-1.3 0.7-2 0.9-0.8 0.1-1.5 0.2-2.3 0.1l-5.3-0.4c-0.5-0.1-0.9 0-1.4 0.1-1.1 0.3-1.8 1.5-1.7 2.6s0.8 2.1 1.7 2.8 1.9 1.2 3 1.5c4.6 1.7 9.3 3.1 14.1 4v1c3.3 1.6 7 2.5 10.7 2.5 0.3 0 0.6 0 0.8-0.1 0.4-0.2 0.5-0.6 0.7-1 1.3-3.7 2-7.5 2.2-11.4 0.1-1 0-2-0.2-2.9-0.2-1 0.8-0.6-0.1-0.9"/>
	<path class="st16" d="m216.9 184.5c-15.6 0.9-31-3.6-46.6-4.1-1.9-0.1-3.9-0.1-5.8 0.4-2 0.5-3.9 1.4-5.7 2.2-8.4 3.9-17 7.1-25.7 10.3l-9.9 3.7c-2 0.7-4 1.5-6.2 1.4-0.9-0.1-2.1-0.2-2.6 0.6-1.6 2.4-0.9 5.9 0.2 8.6 0.3 0.9 0.9 1.8 1.9 1.9 0.7 0.1 1.3-0.3 1.9-0.5 1.8-0.5 3.6 0.7 5.5 0.9 2.3 0.2 4.4-1.1 6.6-1.9 3.6-1.3 7.5-1.3 11.3-1.9 6.3-1.1 12.2-4 17.7-7.4 2.1-1.3 4.2-2.6 6.6-3.1 2.8-0.5 5.6 0.2 8.3 0.9 6.5 1.8 12.8 4 19.1 6.5 3.3 1.3 6.5 2.7 10 3.6 7.4 1.9 15.2 1.5 22.3-1.3 2.5-1 5.2-2.7 5.3-5.4 0.1-1.5-1.1-2.9-1.9-4.2-0.5-0.8-1-1.7-1.6-2.5-2.7-3.8-5.9-9-10.7-8.7z"/>
	<path class="st11" d="m216.9 184.5c-15.6 0.9-31-3.6-46.6-4.1-1.9-0.1-3.9-0.1-5.8 0.4-2 0.5-3.9 1.4-5.7 2.2-8.4 3.9-17 7.1-25.7 10.3l-9.9 3.7c-2 0.7-4 1.5-6.2 1.4-0.9-0.1-2.1-0.2-2.6 0.6-1.6 2.4-0.9 5.9 0.2 8.6 0.3 0.9 0.9 1.8 1.9 1.9 0.7 0.1 1.3-0.3 1.9-0.5 1.8-0.5 3.6 0.7 5.5 0.9 2.3 0.2 4.4-1.1 6.6-1.9 3.6-1.3 7.5-1.3 11.3-1.9 6.3-1.1 12.2-4 17.7-7.4 2.1-1.3 4.2-2.6 6.6-3.1 2.8-0.5 5.6 0.2 8.3 0.9 6.5 1.8 12.8 4 19.1 6.5 3.3 1.3 6.5 2.7 10 3.6 7.4 1.9 15.2 1.5 22.3-1.3 2.5-1 5.2-2.7 5.3-5.4 0.1-1.5-1.1-2.9-1.9-4.2-0.5-0.8-1-1.7-1.6-2.5-2.7-3.8-5.9-9-10.7-8.7z"/>
	<path class="st17" d="m138.2 201.1c2.4 0.8 4.9 1.6 7.4 2.3 1.4-2.3 4-3.9 4.6-6.5v-0.3l-0.3-0.3c-1.8-1-3.8-1.6-5.8-1.7-1.6-0.1-2.3 1.6-3.1 2.7-0.3 0.6-2.2 4.1-2.8 3.8z"/>
	<path class="st16" d="m141.6 199.5c-1.4-0.3-2.9-1.1-3.6-2.4-0.3-0.6-0.7-1.4-1.4-1.4-0.6 0-0.9 0.8-1.1 1.4-0.5 2.3-1.1 4.7-2 6.9s-2.3 4.3-4.3 5.7c-0.9 0.6-1.9 1.1-2.8 1.8-0.8 0.6-1.5 1.3-2.4 1.8-0.6 0.3-1.2 0.5-1.8 0.7-0.9 0.3-1.8 0.7-2.6 1.3-0.7 0.4-1.3 1-1.8 1.7-0.4 0.7-0.5 1.6-0.1 2.4 0.4 0.6 1 1.1 1.7 1.2s1.4 0.1 2.2 0.1c2.8-0.2 5.7-0.5 8.5-0.7 1.2-0.1 2.4-0.2 3.6-0.5 0.6-0.2 1.2-0.3 1.9-0.5 1.1-0.3 2.2-0.4 3.2-0.5 0.3 0 0.6 0 0.9 0.1 0.7 0.2 1.1 0.9 1.8 1 0.4 0 0.9 0 1.3-0.2 2-0.6 4.2-0.5 6.3-0.7 0.9-0.1 2-0.2 2.5-1.1 0.5-1-0.4-2.2-0.7-3.3-0.2-0.7-0.3-1.4-0.3-2.2-0.2-1.8-0.7-3.6-1.6-5.2-0.7-1.3-1.7-2.8-1.2-4.2 0.2-0.5 0.5-0.9 0.5-1.4-0.2-2.3-5.4-1.5-6.7-1.8z"/>
	<path class="st17" d="m193.5 159.5c-2.8-1.2-5-3.4-6.2-6.2-0.3-0.6-0.5-1.2-0.7-1.8-0.8-2-2.1-3.8-3.7-5.2-0.4-0.3-0.9-0.7-1.4-0.6s-0.9 0.6-1 1.1-0.2 1.1-0.1 1.7c0.1 1.3 0.4 2.6 0.7 3.9l0.8 3.4c0.1 0.5 0.3 1 0.5 1.5 0.3 0.6 0.8 1.1 1.3 1.5 0.7 0.6 1.4 1.3 2.1 1.9 1 0.9 2.3 1.5 3.6 1.6 3.1 0.6 6.2 1.4 8.9 3.4 0 0 0-2.3-0.1-2.6-0.1-0.7-0.2-1.4-0.7-1.8-1.1-1-2.7-1.3-4-1.8z"/>
	<path class="st11" d="m193.5 159.5c-2.8-1.2-5-3.4-6.2-6.2-0.3-0.6-0.5-1.2-0.7-1.8-0.8-2-2.1-3.8-3.7-5.2-0.4-0.3-0.9-0.7-1.4-0.6s-0.9 0.6-1 1.1-0.2 1.1-0.1 1.7c0.1 1.3 0.4 2.6 0.7 3.9l0.8 3.4c0.1 0.5 0.3 1 0.5 1.5 0.3 0.6 0.8 1.1 1.3 1.5 0.7 0.6 1.4 1.3 2.1 1.9 1 0.9 2.3 1.5 3.6 1.6 3.1 0.6 6.2 1.4 8.9 3.4 0 0 0-2.3-0.1-2.6-0.1-0.7-0.2-1.4-0.7-1.8-1.1-1-2.7-1.3-4-1.8z"/>
	<ellipse class="st16" cx="225.3" cy="129.3" rx="3.8" ry="3.8"/>
	<path class="st16" d="m222.9 127c-1-0.1-2.2-0.2-3 0.4-0.4 0.4-0.8 0.9-1 1.4-0.8 1.5-1.6 3-2 4.6-0.3 1.4-0.4 2.8-0.8 4.2-0.8 2.5-2.8 4.7-3 7.3-0.1 1.2 0.1 2.6-0.8 3.4-0.2 0.2-0.4 0.3-0.7 0.5-0.6 0.4-1.1 0.9-1.5 1.5-0.3 0.5-0.6 1.1-1.1 1.5-0.8 0.6-2.1 0.5-2.4 1.4-0.4 0.9 0.6 1.9 0.4 2.9-0.2 0.8-1.1 1.1-1.7 1.7-0.8 0.7-1.1 1.7-1.4 2.7-2.6 0.5-5.2-0.2-7.3-1.8 1.1 2.6 1.1 5.5 1.1 8.3 0 0.9 0 1.9-0.7 2.6 3 0.1 6 0.9 8.9 1.5 1.3 0.3 2.7 0.5 3.9 0 0.7-0.4 1.3-0.8 1.8-1.4 1.6-1.6 3.3-3.4 3.7-5.7 0.2-1.3 0-2.6 0.1-3.8 0.1-1.6 0.6-3.1 1-4.7 0.9-3.1 1.4-6.3 1.7-9.6 0.2-2 1.9-3.6 2.8-5.4 1.7-3.4 3.5-6.9 3.6-10.7 0.1-1.1-0.3-2.7-1.6-2.8z"/>
	<path class="st7" d="m222.9 127c-1-0.1-2.2-0.2-3 0.4-0.4 0.4-0.8 0.9-1 1.4-0.8 1.5-1.6 3-2 4.6-0.3 1.4-0.4 2.8-0.8 4.2-0.8 2.5-2.8 4.7-3 7.3-0.1 1.2 0.1 2.6-0.8 3.4-0.2 0.2-0.4 0.3-0.7 0.5-0.6 0.4-1.1 0.9-1.5 1.5-0.3 0.5-0.6 1.1-1.1 1.5-0.8 0.6-2.1 0.5-2.4 1.4-0.4 0.9 0.6 1.9 0.4 2.9-0.2 0.8-1.1 1.1-1.7 1.7-0.8 0.7-1.1 1.7-1.4 2.7-2.6 0.5-5.2-0.2-7.3-1.8 1.1 2.6 1.1 5.5 1.1 8.3 0 0.9 0 1.9-0.7 2.6 3 0.1 6 0.9 8.9 1.5 1.3 0.3 2.7 0.5 3.9 0 0.7-0.4 1.3-0.8 1.8-1.4 1.6-1.6 3.3-3.4 3.7-5.7 0.2-1.3 0-2.6 0.1-3.8 0.1-1.6 0.6-3.1 1-4.7 0.9-3.1 1.4-6.3 1.7-9.6 0.2-2 1.9-3.6 2.8-5.4 1.7-3.4 3.5-6.9 3.6-10.7 0.1-1.1-0.3-2.7-1.6-2.8z"/>
	<path class="st16" d="m219.4 187.8c-3.2-1.5-5.6-4.4-8.2-6.9-5-4.7-11.1-8-16.4-12.4-3.5-2.9-6.6-6.3-10.5-8.8-3.4-2.2-7.2-3.5-11.2-3.9-0.5-0.1-0.9-0.1-1.4 0.1s-0.9 0.6-1.3 1c-1.7 1.9-3.2 4-4.5 6.2-6.7 11.3-16.2 20.9-24 31.4-0.5 0.5-0.6 1.3-0.1 1.9l1.6 3.1c0.9 1.8 2.3 3.8 4.3 3.4 0.9-0.2 1.6-0.8 2.2-1.4l7.2-6.9 7.5-7.2c4.4-4.2 8.9-8.5 11.8-13.9 2.2 3.9 6.2 6.4 9 10 1 1.4 1.9 2.8 2.8 4.3 1.5 2.3 3.2 4.5 4.9 6.6l8.6 11c1.2 1.5 2.4 3 4 4.1 2 1.3 4.5 1.6 6.9 1.9 3.2 0.3 6.5 0.4 9.8 0.4 2.5 0 5-0.2 7.3-1.3s4.1-3.4 3.9-5.9c-0.1-1.3-0.6-2.5-1.2-3.7-3.2-5.7-7.2-10.4-13-13.1z"/>
	<ellipse class="st16" cx="227.6" cy="132" rx="2.9" ry="2.9"/>
	<path class="st17" d="m227 129.7c0.7 1.3 0.7 2.8 0.3 4.2s-1.1 2.6-1.9 3.9c-0.7 1.2-1.5 2.4-2.4 3.5 4.5 0.2 8.9-1.6 12.8-3.7 3.2-1.7 6.4-3.8 8.1-7.1-1 0.3-2.1 0-3-0.6s-1.6-1.3-2.3-2.1l-2.3-2.5c-0.5-0.6-1-1.2-1.4-1.8-0.5-0.9-0.7-1.9-0.6-2.9-0.9 0.9-1.9 1.8-3 2.5-1.6 1.1-3.4 1.8-5 2.9-0.6 0.4-1.8 1-1.5 1.7 0.4 0.7 1.7 1.2 2.2 2z"/>
	<path class="st11" d="m227 129.7c0.7 1.3 0.7 2.8 0.3 4.2s-1.1 2.6-1.9 3.9c-0.7 1.2-1.5 2.4-2.4 3.5 4.5 0.2 8.9-1.6 12.8-3.7 3.2-1.7 6.4-3.8 8.1-7.1-1 0.3-2.1 0-3-0.6s-1.6-1.3-2.3-2.1l-2.3-2.5c-0.5-0.6-1-1.2-1.4-1.8-0.5-0.9-0.7-1.9-0.6-2.9-0.9 0.9-1.9 1.8-3 2.5-1.6 1.1-3.4 1.8-5 2.9-0.6 0.4-1.8 1-1.5 1.7 0.4 0.7 1.7 1.2 2.2 2z"/>
	<path class="st18" d="m227 130.2c-0.8 1.4-1 3.1 0 4.4 0.1 0.2 0.6 1.2 0.8 1.2s0.4-0.1 0.5-0.3c1.1-1 1.9-2.3 2.9-3.4s2.2-2.2 3.6-2.4c1.8-0.3 3.5 0.7 5 1.6 0.6 0.4 1.3 0.8 1.7 1.4 0.3 0.6 0.5 1.2 0.6 1.9 0.5 4 0.5 8.1 0.5 12.1 0 2.9 0 5.9-0.6 8.7-0.3 1.5-0.7 2.9-0.9 4.4-0.1 1.3-0.2 2.7-0.2 4v5.6c0 1 0 2 0.2 3.1 0.3 1.2 0.8 2.3 1.2 3.5 0.4 1.4 0.7 2.8 0.8 4.2l0.8 5.8c0.2 1.8 0.4 3.8-0.7 5.3-0.5 0.7-1.1 1.2-1.7 1.8-1.9 2.5-1.3 6-2.1 9-0.6 2.2-1.9 4.2-3.7 5.6-1.3 1.1-3.1 2-4.8 1.7-2.3-0.4-3.7-2.9-4.4-5.2-0.6-2.3-0.9-4.8-2.3-6.8-1.1-1.6-2.9-2.6-4.5-3.7s-3.1-2.6-3.5-4.5c-0.2-0.8-0.1-1.7-0.1-2.6-0.3-2.2-1.7-4.1-3.7-4.9-1.2-0.5-2.7-0.6-3.4-1.7 1.7-1 2.9-2.8 3.5-4.7s0.7-3.9 0.9-6l0.4-6.7c0.2-3 0.3-6 1.6-8.7 0.6-1.2 1.3-2.3 1.9-3.5 0.8-1.7 1.5-3.4 2.1-5.2 1-2.7 1.9-5.5 2.8-8.3 0.4-1.3 0.8-2.7 1.5-3.9 0.9-1 2-2.6 3.3-2.8z"/>
	<path class="st7" d="m212.1 173.8 1.8 0.1 0.4-2.7c0-0.5 0.2-1.1 0.4-1.6 0.3-0.5 0.6-1 1-1.5 1.7-2.5 1.6-5.7 2.1-8.7 0.6-4 2.2-7.7 3.9-11.4l3.4-7.7c0.7-1.3 1-2.8 1-4.2 0-1.2 0.4-5.5 0.4-6.7 0-0.4-1-0.2-1.2-0.6-0.4-0.9-1 1.5-1.8 2s-1.3 1.4-1.6 2.3c-0.7 1.9-1.2 4-1.9 5.9-0.7 2-1.7 3.9-3.2 5.2-0.7 0.6-1.5 1.1-2.2 1.8-2.1 2.1-2.4 5.5-2.4 8.5-0.1 1.7-0.4 19.3-0.1 19.3z"/>
	<path class="st7" d="m237.7 127c-1.7 0.7-2.7 2.5-3.2 4.3s-0.7 3.7-1.6 5.3c-2.2 3.8-7.7 4.9-9.2 8.9-0.5 1.3-0.5 2.8-0.6 4.2-0.3 2.9-1.2 5.7-1.5 8.6-0.2 2.3 0 4.5 0.2 6.8l1.9 23c0.3 3.3 0.3 6.9-0.6 10.1 2 0.4 4-0.1 5.8-1 1.8-0.8 3.5-2 5.2-2.9 3-1.7 6.3-2.8 8.9-5 0.5-0.4 0.9-0.8 1.2-1.3 0.5-0.9 0.6-2 0.8-3 0.2-0.8 0.5-1.6 0.9-2.4 1-2.3 1.8-4.7 2.5-7.1 0.5-1.6 0.9-3.2 1.2-4.9 0.2-1.3 0.3-2.6 0.4-4 0.1-2.1 0.6-4.1 1.2-6.1 1.7-4.7 2.6-9.6 2.8-14.6 0.1-0.7 0-1.4-0.1-2.1-0.2-0.9-0.7-1.6-1.2-2.4-0.8-1.5-1.3-3.2-2-4.7-1.7-3.5-4.7-6.1-7.9-8.3-1.5-0.9-3.4-2.1-5.1-1.4z"/>
	<path class="st17" d="m197.4 164.5c-1.3-0.8-2.7-1.6-3.7-2.8-0.5-0.6-0.9-1.2-1.4-1.8-1.2-1.4-2.9-2.2-4.6-2.6s-3.6-0.5-5.4-0.5c-1.2 0-2.4 0-3.6 0.4s-2.1 1.3-2.4 2.5c-0.3 1.4 0.7 2.8 1.8 3.7 1 0.9 2.3 1.4 3.6 1.7 1.1 0.2 2.2 0.3 3.2 0.4 6.4 0.7 12.1 4.1 17.7 7.3 4.9 2.8 9.9 5.4 15 7.8 0.2-1.5 0.3-3.1 0.3-4.6 0-1.2-0.1-2.9-1.2-3.6-1.3-0.8-3.4-1-4.8-1.4-3.3-1.1-6.5-2.4-9.6-3.9-1.6-0.7-3.3-1.6-4.9-2.6z"/>
	<ellipse class="st17" cx="225.3" cy="117" rx="11.4" ry="11.4"/>
	<path class="st7" d="m240.9 140c-1 1.2-1.5 2.7-2.2 4.1-1.4 2.9-3.6 5.4-4.7 8.4-1.2 3.2-1.1 7-3.4 9.5-0.4 0.4-0.9 0.9-1 1.4-0.1 0.3 0 0.7-0.1 1-0.3 0.9-1.8 1-2.1 1.9-0.1 0.3 0 0.6-0.1 0.8-0.2 0.6-1 0.7-1.5 1-1.1 0.7-0.9 2.5-1.7 3.6-0.6 0.9-1.8 1.1-2.8 1s-2-0.6-3-1.1c-0.3-0.2-0.7-0.3-1.1-0.3s-0.9 0.2-1.2 0.4c-2.1 1.3-3.1 4-3.1 6.5s0.9 4.9 1.8 7.2c0.1 0.4 0.3 0.8 0.6 1.1 0.7 0.7 1.9 0.6 2.8 0.2s1.8-1.1 2.8-1.2c1.8-0.3 3.5 0.9 5.3 0.8 1.3-0.1 2.5-0.8 3.6-1.6 1.7-1.2 3.5-2.4 4.8-4 0.8-1 1.4-2.2 2-3.3 0.9-1.3 1.8-2.6 2.9-3.8l6.6-8c1.6-1.7 2.7-3.8 3.1-6.1 0.6-2.1 1.3-4.3 1.4-6.5 0.1-1.8-0.2-3.7-0.5-5.5s-0.6-3.6-1.4-5.2c-1.6-3-5.1-5.5-7.8-2.3z"/>
	<circle class="st16" cx="244.8" cy="92.2" r="14.4"/>
	<path class="st16" d="m257.1 104.1c-6.4 4.6-15.4 3.2-20-3.2-0.9-1.3-1.7-2.8-2.1-4.3 1 7.9 8.2 13.4 16 12.5s13.4-8.2 12.5-16c-0.1-0.8-0.3-1.6-0.5-2.3 0.6 5.1-1.6 10.2-5.9 13.3z"/>
	<circle class="st16" cx="233" cy="113.5" r="10.5"/>
	<ellipse class="st16" cx="224.2" cy="109.5" rx="9.3" ry="7.3"/>
	<ellipse class="st17" transform="matrix(.7759 -.6309 .6309 .7759 -25.576 169.94)" cx="226.4" cy="121" rx="1.5" ry="2.2"/>
	<path class="st13" d="m216.1 214.1c0 5.1-3 6.9-6.8 6.9h-0.3-0.5c-3.4-0.2-6-2.1-6-6.9 0-4.9 6.3-11.1 6.7-11.6s6.9 6.5 6.9 11.6z"/>
	<path class="st6" d="m209.1 220.2 2.5-3.5-2.5 3.8v0.4h-0.5l0.3-5.1v-0.5l-2.5-3.8 2.5 3.5v0.1l0.2-3.9-2.1-4 2.2 3.3 0.2-8v6.3l2.1-2.5-2.1 3-0.1 3.5 2-3.3-2 3.8v1.9l2.9-4.6-2.9 5.3-0.2 4.3z"/>

</svg>
