<?xml version="1.0" encoding="UTF-8"?>
<svg enable-background="new 0 0 365 257" version="1.1" viewBox="0 0 365 257" xml:space="preserve" xmlns="http://www.w3.org/2000/svg">
<style type="text/css">
	.st0{display:none;}
	.st1{display:inline;fill:#A0616A;}
	.st2{display:inline;fill:#CECCDF;}
	.st3{display:inline;fill:#661F5C;}
	.st4{display:inline;fill:#2F2F41;}
	.st5{display:inline;fill:#575B89;}
	.st6{fill:#F1F1F1;}
	.st7{fill:#9BC556;}
	.st8{opacity:0.1;enable-background:new    ;}
	.st9{opacity:0.1;fill:#030404;enable-background:new    ;}
	.st10{fill:#403D56;}
	.st11{fill:#E97D13;}
	.st12{fill:#2F2F41;}
	.st13{fill:#9E616A;}
	.st14{fill:#5F62A9;}
	.st15{fill:#FDFDFC;}
	.st16{fill:#517BBD;}
	.st17{fill:#EA567A;}
	.st18{fill:#FFFFFF;}
</style>
<g class="st0">
	<path class="st1" d="m253.6 185c5.2-11.8 20.1 11.6 20.1 11.6l-3.2 6.4s-26.3-9.5-16.9-18"/>
	<path class="st2" d="m266.8 200.8 3.9-7.4 0.2-0.4s15.5 5.7 25.2 9.2c1.2 0.4 2.6 1 4 1.7 10.6 5 27.4 15.7 27.4 15.7l21.3 12.9s4.6 3.4 15.5 5.7c0.5 0.1 1 0.2 1.4 0.4 0 1.4 0 2.9-0.1 4.4-0.3 4.9-0.5 10-0.8 15.2l-36.8-14.8-28-16.6-8.8-5.2-6.7-4-0.6-0.4s-7.1-3.4-9.3-6.8c-2.1-3.3-9.5-6-9.5-6l1.7-3.6z"/>
	<path class="st3" d="m266.8 200.8 3.9-7.4 0.2-0.4s15.5 5.7 25.2 9.2c1.2 0.4 2.6 1 4 1.7 10.6 5 27.4 15.7 27.4 15.7l21.3 12.9s4.6 3.4 15.5 5.7c0.5 0.1 1 0.2 1.4 0.4 0 1.4 0 2.9-0.1 4.4-0.3 4.9-0.5 10-0.8 15.2l-36.8-14.8-28-16.6-8.8-5.2-6.7-4-0.6-0.4s-7.1-3.4-9.3-6.8c-2.1-3.3-9.5-6-9.5-6l1.7-3.6z"/>
	<polygon class="st1" points="309.2 473.9 307.6 491.2 320.2 491.2 320.2 474.6"/>
	<polygon class="st1" points="357.3 473.9 357.3 493.6 373.1 492.8 369.1 473.9"/>
	<path class="st4" d="m295 327.2c-7.1 3.9 0 78.1 0 78.1l12.6 74.1 15.8 1.6s0-20.5 0.8-36.3-3.1-30.8-3.1-30.8l9.5-61.5 18.9 57.6c-2.4 18.1 5.5 37.9 5.5 37.9l0.8 21.3 0.8 7.9h14.2s0-8.7 3.1-21.3-4.7-56-4.7-56-0.8-48.9-1.6-63.1-4.7-12.6-4.7-12.6-60.8-0.9-67.9 3.1z"/>
	<path class="st1" d="m340 167.8c0 10.9-8.8 19.7-19.7 19.7s-13.2-4.4-18.7-18.8c-3.9-10.2 7.8-20.6 18.7-20.6 10.8 0 19.7 8.8 19.7 19.7z"/>
	<path class="st1" d="m312 181.6c2.4 4.7 0 22.9 0 22.9s36.3-0.8 31.5-3.9c-4.7-3.1-7.9-26-7.9-26l-23.6 7z"/>
	<path class="st1" d="m280.6 331.6s6.3 21-6.1 23.9c-12.9 3-1-23.2-1-23.2l7.1-0.7z"/>
	<path class="st4" d="m338.2 182c3.3-5.3 4.9-7.3 5.8-13.4s-0.6-12.9-5.2-17.1c-4.8-4.5-11.9-5.3-18.5-5.9-2.6-0.2-5.3-0.4-7.6 0.7-1.3 0.7-2.4 1.8-3.9 2.2-1.4 0.4-3.4-0.2-3.5-1.7-0.3 3.8-3.4 6.8-7.2 6.8 4.3 3.2 1 11.6 5.6 14.3 2.5 1.4 5.6 0.1 8.4 0.8 4.2 1.1 5.8 6.1 8.4 9.6 4.3 5.3 11.7 7 17.9 4l-0.2-0.3z"/>
	<path class="st3" d="m300 204c4.6-2.1 9.5-4.4 11.9-5.6l0.6-0.3c4.9-1.8 20.4-2.9 27.5-3.3 2.3-0.1 3.7-0.2 3.7-0.2 13.4 10.7 21.4 26.8 21.8 44 0 1.4 0 2.9-0.1 4.4-0.3 4.9-0.5 10-0.8 15.2-1 18.1-2.1 36.3-2.8 43-0.8 8 0.2 16.1 2.8 23.7 0.4 1 0.7 2.1 1.2 3.1l-71.8 2.4v-2.3c-0.1-4.4 2.9-6.5 1.7-16.5 2.2-9 5.6-10.1 3.4-15.7 0-3.4-2.8-10.6-1.1-15.7 1-3 0-7.3 0-7.3l-0.4-2.6-6.6-48.6-1.6-11.9-0.1-0.8c0.2-0.1 5.3-2.5 10.7-5z"/>
	<path class="st3" d="m298.9 264.1-9.5 50.5s-0.8 7.9-3.1 11c-2.4 3.1-2.4 11-2.4 11l-12.6-1.6v-26.8c0-10.2 5.5-35.5 5.5-35.5l4.7-24.4s1.6-5.5 0-16.6 7.9-22.1 7.9-22.1h11l-1.5 54.5z"/>
	<ellipse class="st5" cx="339.3" cy="505.5" rx="84.7" ry="10.4"/>
	<path class="st4" d="m306 477.8s-3.1 2.4-12.6 3.1c-9.5 0.8-4.7 14.2-4.7 14.2s24.5 12.6 26.8 14.2c2.4 1.6 9.5 0 15-4.7s-1.6-14.2-4.7-21.3-10.2 2.4-10.2 2.4l-9.6-7.9z"/>
	<path class="st4" d="m354.9 487.3s-2.4 11.8-3.9 18.9c-1.6 7.1 10.2 3.9 28.4 3.9s-0.8-15-0.8-15-2.4-10.2-5.5-12.6-3.1 5.5-3.1 5.5c-7.2-11-15.1-0.7-15.1-0.7z"/>
</g>

	<polygon class="st6" points="297.4 27.6 126.9 144.6 115.3 127.6 261 27.6"/>
	<polygon class="st6" points="353.3 27.6 353.3 44.5 113.6 209.1 102 192.2 341.7 27.6"/>
	<polygon class="st6" points="353.3 77.5 353.3 102.4 168.2 229.5 131.9 229.5"/>
	<ellipse class="st7" cx="183.5" cy="238.9" rx="178.5" ry="8.3"/>
	<ellipse class="st8" cx="269" cy="240.3" rx="41.5" ry="5.8"/>
	<ellipse class="st9" cx="123.3" cy="239.2" rx="52.3" ry="6.9"/>
	<path class="st7" d="m83.3 146.7c14.6 13.3 11.9 26.6 2.2 37.3l-0.7 0.7c-0.5 0.5-0.9 1-1.4 1.4-9.5 9.1-21.6 11.7-35.3-0.6-14.1-12.8-15.6-46.9-15.7-49.4v-0.1s36.2-2.5 50.9 10.7z"/>
	<path class="st10" d="m82.5 182.7-3.5-16.1 4.6 17.1 1.1 1.1c-0.5 0.5-0.9 1-1.4 1.4l-15.4-15.4-17.5-2.9 16.5 1.9 0.3 0.2-10.5-10.6-17-4.2 15.1 2.4-22.4-21.4-0.1-0.1 0.1 0.1 18 16.5-1.7-12.6 3.2 14 9.8 9.1-4.4-14.2 5.8 15.6 5.4 5.1-5.8-20.2 7.7 22 12.1 11.2z"/>
	<path class="st11" d="m122.2 121.7c-33.9 0-61.3 27.4-61.3 61.3s27.4 61.3 61.3 61.3 61.3-27.4 61.3-61.3-27.4-61.3-61.3-61.3zm1.1 76.2c-6.9 0-12.4-6.8-12.4-15.1s5.6-15.1 12.4-15.1c6.9 0 12.4 6.8 12.4 15.1s-5.5 15.1-12.4 15.1z"/>
	<path class="st8" d="m123 197.9c-6.9 0-12.4-6.8-12.4-15.1s5.6-15.1 12.4-15.1c6.7 0 12.1 6.4 12.4 14.4v-0.7c0-10.2-8.2-18.4-18.4-18.4s-18.4 8.2-18.4 18.4 8.2 18.4 18.4 18.4c3 0 6-0.7 8.7-2.2-0.9 0.2-1.8 0.3-2.7 0.3z"/>
	<path class="st12" d="m124.6 58.7s15.3 0.4 17.8 1.3 3.6 7.5 3.6 7.5l-11.9 3.7-8.9-0.5-6.7 0.5 3.7-9.8 2.4-2.7z"/>
	<path class="st13" d="m125.2 53.7s1 3.9-1.2 6.6 9.6 12.5 9.6 12.5l6.2-1.1s-1.4-11.9 0.5-14.9c1.8-3-15.1-3.1-15.1-3.1z"/>
	<path class="st8" d="m125.2 53.7s1 3.9-1.2 6.6 9.6 12.5 9.6 12.5l6.2-1.1s-1.4-11.9 0.5-14.9c1.8-3-15.1-3.1-15.1-3.1z"/>
	<polygon class="st13" points="166.7 167.1 152.9 185.4 162.3 190.9 175.2 169.7"/>
	<path class="st12" d="m157 185.7s-5.1-5.9-4.8-4.6-3.6 12.4 0 13.5 34.1 3.9 34.5 0.5-9.1-5.9-9.1-5.9-5.7-5.4-6.9-4.9c-1.3 0.6-13.7 1.4-13.7 1.4z"/>
	<polygon class="st13" points="163.6 184.6 174.6 203.3 182.9 198.5 171.8 183.2"/>
	<path class="st14" d="m180.9 140-3.3 4.6s-15.5 21.6-13.9 23.3 8.5 8.3 12 7.1c3.5-1.3 15.9-23.3 15.9-23.3l-3.2-13-7.5 1.3z"/>
	<path class="st14" d="m114 135.7s3.5 6.5 12.3 8.7 18 6.7 18.4 6.6c0.3-0.1 1.3-0.6 1.5 0.8 0.2 1.3 2.6 3.6 2.6 3.6s9.7 33.1 13.5 33.1c3.7 0 11.4-2.6 11.5-3.7 0.2-1-11.4-34.9-11.5-35.5l-1.4-7.9s15.3 2.4 16.7 2.9c1.4 0.4 14.1 7.4 14.1 7.4s12.9-9.3 0.8-18.7-32.9-16.3-32.9-16.3l-7.5-2.1-6.5-0.4-1-3.7-15.4 0.9-16.1 6.8 0.9 17.5z"/>
	<circle class="st13" cx="134.3" cy="49.5" r="12"/>
	<path class="st15" d="m123.4 59.1 1.4-0.2s2.6 10 10.7 11.7c0 0 4-4.8 3.8-5.6s3.1-5.1 4.9-2.7-0.4 44.6 1.1 45.4 4.7 1.6 2.1 4.4-12.7 6.6-15 5.3c-2.2-1.3-6.8-12.3-8.8-16s-5.2-16.3-5.2-16.3-4.1-13.8-1.6-17c2.6-3.3 6.6-9 6.6-9z"/>
	<path class="st12" d="m134.9 111.1c-0.3 2.9-0.7 5.9-1.4 8.7-0.6 2.3-1.3 3.8-2.1 3.7-2-0.1-2.9 2.8-3.4 6.1-0.5 3.6-0.5 7.7-0.8 9.1-0.4 1.9-2.7 3.4-7.3 2.9-2.8-0.3-5.5-1-8.1-2-6.3-2.3-6.1-20.7-5-34.4 0.6-8.4 1.6-15 1.6-15s-1.9-5.7-2.5-9.6c-0.1-0.7-0.2-1.4-0.2-2.1 0.1-3.4 6.3-12.6 10-18.3s8.9-1.5 8.9-1.5l-1.8 5.4s2.8 4.3 2.8 8.3 6.6 7 9 8.9c1.6 1.4 1.6 17.8 0.3 29.8z"/>
	<path class="st12" d="m140.1 60.8s0.4 0.5 2.4 0.3c2.4-0.3 5.6 0.5 6.4 2.8 1.4 4.2 5.3 21 5.3 21s1.6 19.3 2.4 23.6c0.7 4.3 0.4 8 1.1 10.3 0.7 2.2-7.1-4.2-10-3.3-2.9 0.8-4.8-10-4.4-13.8s0.7-7.9-0.3-11.8 0.8-14.1 0.7-16.5-6.5-8.3-3.6-12.6z"/>
	<path class="st13" d="m148.6 120.8s12.7 6.9 13.9 16.8-17-9.5-17-9.5l3.1-7.3z"/>
	<path class="st13" d="m155.8 113.8s3.9 19.6 9.9 18.6c6.1-1-3.4-19.7-3.4-19.7l-6.5 1.1z"/>
	<path class="st12" d="m176.6 199.2s-3.1 3.6-3.9 3-2.5 6.9-0.9 8.3 7.7 3.7 7.8 6.1 16.5 1.9 17.1-0.6-2.1-8.1-3.9-9.1-8.8-10.5-8.8-10.5-5.4 0.8-7.4 2.8z"/>
	<path class="st8" d="m146.6 132.8c-2.9-2.1-11.2-2.6-18.4-3.1-3.2-0.2-6.2-0.4-8.5-0.7-2.2-0.3-4.3-2.4-6-5.4-2.7-4.6-4.9-11.5-6.6-18.2 0.6-8.4 1.6-15 1.6-15s-1.9-5.7-2.5-9.6c0.4-0.6 1-1.1 1.6-1.5 7.7-3.3 15.1 29.4 16.1 34.5v0.2c0.5 2.6 5.4 4.9 9.8 5.8 2.7 0.6 5.2 0.6 6.4-0.1 3.1-1.9 12.4 5.6 13.2 5.8 0.5 0.3-2.5 10.3-6.7 7.3z"/>
	<path class="st12" d="m107.7 77.3s-5.6 2.7-3.2 15.1 7.4 33.5 15.1 34.6c7.6 1.1 22.8 0.8 27 3.8s7.2-7 6.5-7.2-10.1-7.7-13.2-5.8-15.4-1.4-16.2-5.7-8.2-38.2-16-34.8z"/>
	<path class="st12" d="m148.2 71.4 6.2 14.3s0.6-0.3 1.3 1.9 1.1 4.2 2.3 5.7c1.3 1.5 6.9 22.5 7.1 23.4 0.2 1-7.8 4.4-9.6 1.6-1.7-2.6-7.3-46.9-7.3-46.9z"/>
	<path class="st12" d="m127.5 49.3c0.5-0.1 0.5-0.7 0.5-1.2 0.1-2.5 1.6-5.2 4-5.9 0.9-0.3 1.9-0.3 2.9-0.2 1.4 0.2 2.7 0.6 3.9 1.3 0.6 0.4 1.3 0.8 2 0.9 0.5 0.1 2.5 0.7 3 0.8 1 0.2 2 1.1 3 0.8s1.2-1.6 1.2-2.6c0.1-2.3-1.7-5.5-3.2-7.2-1.2-1.3-2.9-1.9-4.6-2.2-2-0.3-4-0.4-6.1-0.4-2.8 0-5.6 0.3-8.1 1.5s-4.6 3.6-4.7 6.3v1.7c-0.1 1.4-0.9 2.7-1.2 4-0.5 2-0.1 4.1 1 5.9 0.9 1.4 2.4 2.6 2.3 4.2l2-2.1c0.6-0.5 0.8-1.3 0.5-2l-0.7-2.8c-0.2-0.5-0.2-1-0.1-1.5 0.8-1.9 1.6 0.9 2.4 0.7z"/>


	<rect class="st16" x="282.6" y="67.1" width="42.9" height="42.9"/>
	<rect class="st16" x="231.2" y="128.9" width="80.2" height="44"/>
	<rect class="st16" x="188.3" y="58" width="36.1" height="52.5"/>
	<path class="st7" d="m314.8 53c-1.6 5.9-7.1 9.6-7.1 9.6s-2.9-5.9-1.3-11.9c1.6-5.9 7.1-9.6 7.1-9.6s2.9 6 1.3 11.9z"/>
	<path class="st7" d="m300.2 53c1.6 5.9 7.1 9.6 7.1 9.6s2.9-5.9 1.3-11.9c-1.6-5.9-7.1-9.6-7.1-9.6s-2.9 6-1.3 11.9z"/>
	<path class="st10" d="m302.5 51.8c4.4 4.3 4.9 10.9 4.9 10.9s-6.6-0.4-11-4.6c-4.4-4.3-4.9-10.9-4.9-10.9s6.6 0.3 11 4.6z"/>
	<path class="st10" d="m312.4 51.8c-4.4 4.3-4.9 10.9-4.9 10.9s6.6-0.4 11-4.6c4.4-4.3 4.9-10.9 4.9-10.9s-6.6 0.3-11 4.6z"/>
	<path class="st7" d="m176.6 37.9c6.1 0.1 11 4.6 11 4.6s-5.1 4.2-11.2 4.1-11-4.6-11-4.6 5.1-4.2 11.2-4.1z"/>
	<path class="st7" d="m145.7 16.9c5.6 2.6 11.9 0.8 11.9 0.8s-2.6-6.1-8.2-8.7-11.9-0.8-11.9-0.8 2.6 6.1 8.2 8.7z"/>
	<path class="st10" d="m146.3 14.3c6.1-0.6 11.5 3.3 11.5 3.3s-4.6 4.8-10.7 5.3c-6.1 0.6-11.5-3.3-11.5-3.3s4.5-4.7 10.7-5.3z"/>
	<path class="st10" d="m168.7 15.4c-0.6 6.1 3.3 11.5 3.3 11.5s4.8-4.5 5.4-10.7-3.3-11.5-3.3-11.5-4.8 4.5-5.4 10.7z"/>
	<path class="st10" d="m197.5 52.9c-3.2 5.2-2.1 11.8-2.1 11.8s6.3-2 9.5-7.2 2.1-11.8 2.1-11.8-6.3 1.9-9.5 7.2z"/>
	<path class="st10" d="m188.2 109.9 0.5-0.3c-1.6-2.4-2.6-5.2-2.6-8.1 0-4.3 2.1-8.2 4.1-12 0.4-0.7 0.7-1.4 1.1-2.1 1.5-2.9 2.7-5.9 3.6-9 3.1-11.6 0-25.4-8.3-36.7-6.6-9-16.4-16.9-30-24.1l-0.3 0.5c13.5 7.2 23.3 15 29.8 23.9 8.2 11.2 11.2 24.8 8.2 36.3-0.9 3.1-2.1 6.1-3.5 8.9-0.4 0.7-0.7 1.4-1.1 2.1-2.1 3.9-4.2 7.9-4.2 12.3 0.1 2.9 1 5.8 2.7 8.3z"/>
	<circle class="st17" cx="129.8" cy="12.9" r="5.4"/>
	<path class="st10" d="m229.5 105.8h-36.7v-53.1h36.7v53.1zm-36.1-0.6h35.6v-52h-35.6v52z"/>
	<rect class="st18" x="197.3" y="66.8" width="23.2" height=".6"/>
	<rect class="st18" x="197.2" y="73" width="23.2" height=".6"/>
	<rect class="st18" x="197.1" y="79.2" width="23.2" height=".6"/>
	<rect class="st18" x="197" y="85.4" width="23.2" height=".6"/>
	<rect class="st18" x="196.9" y="91.6" width="23.2" height=".6"/>
	<rect class="st18" x="196.8" y="97.8" width="23.2" height=".6"/>
	<rect class="st18" x="244.5" y="134.6" width="60.4" height=".6"/>
	<rect class="st18" x="244.4" y="141" width="60.4" height=".6"/>
	<rect class="st18" x="244.3" y="147.5" width="60.4" height=".6"/>
	<rect class="st18" x="244.2" y="154" width="60.4" height=".6"/>
	<rect class="st18" x="244.1" y="160.5" width="60.4" height=".6"/>
	<rect class="st18" x="292.5" y="73.3" width="28.2" height=".6"/>
	<rect class="st18" x="292.4" y="79.5" width="28.2" height=".6"/>
	<rect class="st18" x="292.3" y="85.7" width="28.2" height=".6"/>
	<rect class="st18" x="292.2" y="91.9" width="28.2" height=".6"/>
	<rect class="st18" x="292.1" y="98.1" width="28.2" height=".6"/>
	<path class="st10" d="m317.9 168.2h-80.8v-44.6h80.8v44.6zm-80.2-0.6h79.6v-43.5h-79.6v43.5z"/>
	<polygon class="st10" points="277.5 124.2 277.3 124 229 78.6 229.4 78.1 277.6 123.5 307.4 105.2 307.7 105.7"/>
	<path class="st10" d="M330.9,105.8h-43.5V62.3h43.5V105.8z M288,105.2h42.4V62.8H288V105.2z"/>

</svg>
