<?xml version="1.0" encoding="UTF-8"?>
<svg enable-background="new 0 0 365 221" version="1.1" viewBox="0 0 365 221" xml:space="preserve" xmlns="http://www.w3.org/2000/svg">
<style type="text/css">
	.st0{display:none;}
	.st1{display:inline;fill:#A0616A;}
	.st2{display:inline;fill:#CECCDF;}
	.st3{display:inline;fill:#661F5C;}
	.st4{display:inline;fill:#2F2F41;}
	.st5{display:inline;fill:#575B89;}
	.st6{fill:#E1EAF8;}
	.st7{opacity:0.2;fill:#0A0D10;enable-background:new    ;}
	.st8{fill:#BFD9F2;}
	.st9{fill:#C095B6;}
	.st10{fill:#423D56;}
	.st11{fill:#F3A973;}
	.st12{fill:#374F9B;}
	.st13{fill:#FFFFFF;}
	.st14{fill:#C34D78;}
</style>
<g class="st0">
	<path class="st1" d="m253.6 185c5.2-11.8 20.1 11.6 20.1 11.6l-3.2 6.4s-26.3-9.5-16.9-18"/>
	<path class="st2" d="m266.8 200.8 3.9-7.4 0.2-0.4s15.5 5.7 25.2 9.2c1.2 0.4 2.6 1 4 1.7 10.6 5 27.4 15.7 27.4 15.7l21.3 12.9s4.6 3.4 15.5 5.7c0.5 0.1 1 0.2 1.4 0.4 0 1.4 0 2.9-0.1 4.4-0.3 4.9-0.5 10-0.8 15.2l-36.8-14.8-28-16.6-8.8-5.2-6.7-4-0.6-0.4s-7.1-3.4-9.3-6.8c-2.1-3.3-9.5-6-9.5-6l1.7-3.6z"/>
	<path class="st3" d="m266.8 200.8 3.9-7.4 0.2-0.4s15.5 5.7 25.2 9.2c1.2 0.4 2.6 1 4 1.7 10.6 5 27.4 15.7 27.4 15.7l21.3 12.9s4.6 3.4 15.5 5.7c0.5 0.1 1 0.2 1.4 0.4 0 1.4 0 2.9-0.1 4.4-0.3 4.9-0.5 10-0.8 15.2l-36.8-14.8-28-16.6-8.8-5.2-6.7-4-0.6-0.4s-7.1-3.4-9.3-6.8c-2.1-3.3-9.5-6-9.5-6l1.7-3.6z"/>
	<polygon class="st1" points="309.2 473.9 307.6 491.2 320.2 491.2 320.2 474.6"/>
	<polygon class="st1" points="357.3 473.9 357.3 493.6 373.1 492.8 369.1 473.9"/>
	<path class="st4" d="m295 327.2c-7.1 3.9 0 78.1 0 78.1l12.6 74.1 15.8 1.6s0-20.5 0.8-36.3-3.1-30.8-3.1-30.8l9.5-61.5 18.9 57.6c-2.4 18.1 5.5 37.9 5.5 37.9l0.8 21.3 0.8 7.9h14.2s0-8.7 3.1-21.3-4.7-56-4.7-56-0.8-48.9-1.6-63.1-4.7-12.6-4.7-12.6-60.8-0.9-67.9 3.1z"/>
	<path class="st1" d="m340 167.8c0 10.9-8.8 19.7-19.7 19.7s-13.2-4.4-18.7-18.8c-3.9-10.2 7.8-20.6 18.7-20.6 10.8 0 19.7 8.8 19.7 19.7z"/>
	<path class="st1" d="m312 181.6c2.4 4.7 0 22.9 0 22.9s36.3-0.8 31.5-3.9c-4.7-3.1-7.9-26-7.9-26l-23.6 7z"/>
	<path class="st1" d="m280.6 331.6s6.3 21-6.1 23.9c-12.9 3-1-23.2-1-23.2l7.1-0.7z"/>
	<path class="st4" d="m338.2 182c3.3-5.3 4.9-7.3 5.8-13.4s-0.6-12.9-5.2-17.1c-4.8-4.5-11.9-5.3-18.5-5.9-2.6-0.2-5.3-0.4-7.6 0.7-1.3 0.7-2.4 1.8-3.9 2.2-1.4 0.4-3.4-0.2-3.5-1.7-0.3 3.8-3.4 6.8-7.2 6.8 4.3 3.2 1 11.6 5.6 14.3 2.5 1.4 5.6 0.1 8.4 0.8 4.2 1.1 5.8 6.1 8.4 9.6 4.3 5.3 11.7 7 17.9 4l-0.2-0.3z"/>
	<path class="st3" d="m300 204c4.6-2.1 9.5-4.4 11.9-5.6l0.6-0.3c4.9-1.8 20.4-2.9 27.5-3.3 2.3-0.1 3.7-0.2 3.7-0.2 13.4 10.7 21.4 26.8 21.8 44 0 1.4 0 2.9-0.1 4.4-0.3 4.9-0.5 10-0.8 15.2-1 18.1-2.1 36.3-2.8 43-0.8 8 0.2 16.1 2.8 23.7 0.4 1 0.7 2.1 1.2 3.1l-71.8 2.4v-2.3c-0.1-4.4 2.9-6.5 1.7-16.5 2.2-9 5.6-10.1 3.4-15.7 0-3.4-2.8-10.6-1.1-15.7 1-3 0-7.3 0-7.3l-0.4-2.6-6.6-48.6-1.6-11.9-0.1-0.8c0.2-0.1 5.3-2.5 10.7-5z"/>
	<path class="st3" d="m298.9 264.1-9.5 50.5s-0.8 7.9-3.1 11c-2.4 3.1-2.4 11-2.4 11l-12.6-1.6v-26.8c0-10.2 5.5-35.5 5.5-35.5l4.7-24.4s1.6-5.5 0-16.6 7.9-22.1 7.9-22.1h11l-1.5 54.5z"/>
	<ellipse class="st5" cx="339.3" cy="505.5" rx="84.7" ry="10.4"/>
	<path class="st4" d="m306 477.8s-3.1 2.4-12.6 3.1c-9.5 0.8-4.7 14.2-4.7 14.2s24.5 12.6 26.8 14.2c2.4 1.6 9.5 0 15-4.7s-1.6-14.2-4.7-21.3-10.2 2.4-10.2 2.4l-9.6-7.9z"/>
	<path class="st4" d="m354.9 487.3s-2.4 11.8-3.9 18.9c-1.6 7.1 10.2 3.9 28.4 3.9s-0.8-15-0.8-15-2.4-10.2-5.5-12.6-3.1 5.5-3.1 5.5c-7.2-11-15.1-0.7-15.1-0.7z"/>
</g>

	<ellipse class="st6" cx="187.1" cy="110.4" rx="98.9" ry="100.5"/>
	
		<rect class="st7" x="31.2" y="66.4" width="146.6" height="109.4"/>
		<rect class="st7" x="193" y="66.4" width="146.6" height="109.4"/>
		<rect class="st8" x="24.5" y="57.3" width="146.6" height="109.4"/>
		<rect class="st9" x="184.8" y="57.3" width="146.6" height="109.4"/>
		
			<rect class="st10" x="7.4" y="102.5" width="155.8" height="1.4"/>
			<rect class="st10" x="36.8" y="132.2" width="125.1" height="1.4"/>
			<rect class="st10" x="36.8" y="142.3" width="125.1" height="1.4"/>
			<rect class="st10" x="36.8" y="152.2" width="125.1" height="1.4"/>
			<rect class="st11" x="39.3" y="96.4" width="28.1" height="23.2"/>
			<path class="st10" d="m63.3 116h-29.3v-24.4h29.3v24.4zm-28.1-1.2h27v-22h-27v22z"/>
			<ellipse class="st12" cx="11.4" cy="104" rx="5.6" ry="5.7"/>
			<ellipse class="st13" cx="99.5" cy="102.5" rx="12.6" ry="12.8"/>
			<path class="st12" d="m99.5 88.1c-7.6 0-13.9 6.3-13.9 14.2 0 7.8 6.2 14.2 13.9 14.2s13.9-6.3 13.9-14.2c0.1-7.9-6.2-14.2-13.9-14.2zm-2.4 20.5-6-6.1 1.7-1.7 4.3 4.3 9.1-9.3 1.7 1.7-10.8 11.1z"/>
		
		
			<rect class="st10" x="198.7" y="101.8" width="125.2" height="1.4"/>
			<rect class="st10" x="198.7" y="111.8" width="125.2" height="1.4"/>
			<rect class="st10" x="198.7" y="121.8" width="125.2" height="1.4"/>
			<rect class="st14" x="201.1" y="65.9" width="28.2" height="23.3"/>
			<path class="st13" d="m225.2 85.6h-29.3v-24.4h29.3v24.4zm-28.1-1.2h27v-22h-27v22z"/>
		
	
	<polyline class="st10" points="229.7 78.3 354.5 78.3 354.5 76.9 229.7 76.9"/>
	<ellipse class="st12" cx="350.4" cy="78.4" rx="5.6" ry="5.7"/>

</svg>
